<svg xmlns="http://www.w3.org/2000/svg" xmlns:xlink="http://www.w3.org/1999/xlink" viewBox="0 0 841.9 189.7"><defs><style>      .cls-1 {        fill: #2a3f58;      }      .cls-2 {        fill: #fff;      }      .cls-3, .cls-4 {        fill: #bf2332;      }      .cls-4 {        filter: url(#drop-shadow-1);      }    </style><filter id="drop-shadow-1" filterUnits="userSpaceOnUse"><feGaussianBlur stdDeviation="2.8"></feGaussianBlur></filter></defs><g><g id="Calque_1"><g><path class="cls-3" d="M354.7,97.3c13,0,22,4.8,29.4,12.3l-11.9,11c-4.8-4.3-10.8-7-17.4-7-12.5,0-20.6,9.4-20.6,21.2s9.2,21.2,20.9,21.2,18.3-6.8,18.7-13.6h-20v-14.9h38.6v6.7c0,20.7-12.2,38-37.7,38s-38-16.5-38-37.4,15.8-37.4,38-37.4Z"></path><path class="cls-3" d="M409.5,99.7h46.5v15.2h-29.3v12.6h27v15h-27v12.6h30.5v14.7h-47.7v-70.2ZM429.7,89h14.5l-6.6,9.2h-11.7l3.7-9.2Z"></path><path class="cls-3" d="M471.4,99.7h16l17.9,37.9,18-37.9h15.8v70.2h-17.1v-31.2l-15.3,33.6h-2.8l-15.3-33.8v31.5h-17.2v-70.2Z"></path><path class="cls-3" d="M556.2,99.7h46.5v15.2h-29.3v12.6h27v15h-27v12.6h30.5v14.7h-47.7v-70.2Z"></path><g><polygon class="cls-3" points="644.1 106.9 614.4 169.9 632.9 169.9 636.3 162.6 644.1 162.6 644.1 106.9"></polygon><polygon class="cls-3" points="656 106.7 656 162.6 664 162.6 667.5 169.9 686 169.9 656 106.7"></polygon><circle class="cls-3" cx="650" cy="148.4" r="3.4"></circle><circle class="cls-3" cx="650" cy="134.8" r="3.4"></circle><circle class="cls-3" cx="650" cy="121.1" r="3.4"></circle></g><path class="cls-3" d="M695.8,99.7h17.1v44c0,9.4,4.4,12.6,10.4,12.6s10.6-3.3,10.6-12.6v-44h17.2v46.6c0,16.6-12.4,26-27.9,26s-27.5-9.8-27.5-26v-46.6Z"></path><path class="cls-3" d="M787.2,133.4l-22.6-33.7h20l13.2,20.9,12.5-20.9h19.8l-22.4,35,23.5,35.2h-19.7l-14.5-22.1-13.9,22.1h-19.7l23.6-36.5Z"></path></g><g><path class="cls-1" d="M317.6,18.6h17.7c16.3,0,29.6,13.3,29.6,29.6s-13.3,29.6-29.6,29.6h-17.7V18.6ZM322.4,73.1h13c13.7,0,24.8-11.1,24.8-24.8s-11.1-24.8-24.8-24.8h-13v49.7Z"></path><path class="cls-1" d="M376.8,18.6h31.9v4.7h-27.2v22.5h22.5v4.7h-22.5v22.5h27.2v4.7h-31.9V18.6ZM388.8,17.1l-2.4-4.1,10.3-6,2.4,4.1-10.3,6Z"></path><path class="cls-1" d="M420.6,18.6h25.6c12,0,21.7,9.7,21.7,21.7s-9.7,21.7-21.7,21.7h-20.9v15.8h-4.7V18.6ZM425.3,57.3h20.9c9.4,0,17-7.6,17-17s-7.6-17-17-17h-20.9v33.9Z"></path><path class="cls-1" d="M504,18.6l26.2,59.2h-5.1l-6-13.4h-38l-6,13.4h-5.1l26.2-59.2h7.9ZM483.1,59.6h33.9l-16.1-36.3h-1.7l-16.1,36.3Z"></path><path class="cls-1" d="M542,18.6h7.9l40.5,51.6V18.6h4.7v59.2h-4.7l-42.7-54.4h-.9v54.4h-4.7V18.6Z"></path><path class="cls-1" d="M606.9,18.6h7.9l40.5,51.6V18.6h4.7v59.2h-4.7l-42.7-54.4h-.9v54.4h-4.7V18.6Z"></path><path class="cls-1" d="M705.9,18.6l26.2,59.2h-5.1l-6-13.4h-38l-6,13.4h-5.1l26.2-59.2h7.9ZM685,59.6h33.9l-16.1-36.3h-1.7l-16.1,36.3Z"></path><path class="cls-1" d="M781.9,67.1v-13h4.7v15c-11.5,11.6-30.3,11.6-41.8,0-11.6-11.5-11.6-30.3,0-41.8,11.5-11.6,30.3-11.6,41.8,0l-3.3,3.3c-9.7-9.7-25.5-9.7-35.2,0-9.7,9.7-9.7,25.5,0,35.2,9.2,9.2,24,9.7,33.8,1.3Z"></path><path class="cls-1" d="M798.5,18.6h31.9v4.7h-27.2v22.5h22.5v4.7h-22.5v22.5h27.2v4.7h-31.9V18.6Z"></path></g><g><path class="cls-4" d="M134.8,92.6s0,0,0,0c0,13.7-6.6,25.8-16.8,33.7-4.2,3.6-9.8,6.5-16.9,7.9-3.2.7-6.6,1.1-10.1,1.1s-.6,0-.9,0c-.2,0-.4,0-.6,0-23.6,0-42.3-16.5-42.3-42.8s16.3-42.8,41.6-42.8.7,0,1.1,0c.4,0,.7,0,1.1,0,11.6,0,22.1,4.4,29.9,11.5,1.1.8,2.1,1.7,3.2,2.6l24.1-22.2c-14.9-15.1-33.1-24.8-59.3-24.8C43.9,17.1,12,50.4,12,92.7s31.9,75.6,76.8,75.6,75.6-34.3,76.1-75.7h-30.1Z"></path><path class="cls-1" d="M204.1,17.1h-115.6C46.7,17.1,12.9,50.9,12.9,92.6s33.8,75.6,75.6,75.6h0c0,0,92,0,92,0l48.4,12.7v-104.4l-48.8-12.8h59.4v97.1c27.4-12.5,43.6-39.2,43.6-68.5,0-42.6-34.5-75.4-79.1-75.4ZM221.4,119.9c1.4,0,2.5,1.1,2.5,2.5s-1.1,2.5-2.5,2.5-2.5-1.1-2.5-2.5,1.1-2.5,2.5-2.5Z"></path><rect class="cls-3" x="72" y="81.2" width="47.4" height="22.9" rx="11.5" ry="11.5"></rect><path class="cls-2" d="M134.8,92.6s0,0,0,0c0,13.7-6.6,25.8-16.8,33.7-4.2,3.6-9.8,6.5-16.9,7.9-3.2.7-6.6,1.1-10.1,1.1s-.6,0-.9,0c-.2,0-.4,0-.6,0-23.6,0-42.3-16.5-42.3-42.8s16.3-42.8,41.6-42.8.7,0,1.1,0c.4,0,.7,0,1.1,0,11.6,0,22.1,4.4,29.9,11.5,1.1.8,2.1,1.7,3.2,2.6l24.1-22.2c-14.9-15.1-33.1-24.8-59.3-24.8C43.9,17.1,12,50.4,12,92.7s31.9,75.6,76.8,75.6,75.6-34.3,76.1-75.7h-30.1Z"></path></g></g></g></svg>